<svg xmlns="http://www.w3.org/2000/svg" viewBox="0 0 100 100">
<rect width="100" height="100" rx="18" fill="#0a0a0a"/>
<g fill="#f6f6f6" transform="translate(19.00,68.53) scale(0.05295,-0.05295)">
<path d="M265.9500732421875 -14Q159.3499755859375 -14 96.72491455078125 44.737518310546875Q34.099853515625 103.47503662109375 34.099853515625 210V273.02520751953125H154.20068359375V210Q154.20068359375 158.4503173828125 182.300537109375 128.4505615234375Q210.400390625 98.4508056640625 262.82501220703125 98.4508056640625Q313.12457275390625 98.4508056640625 338.7619934082031 128.03805541992188Q364.3994140625 157.62530517578125 364.3994140625 210V590.8492431640625H243.699462890625V700H563.4503173828125V590.8492431640625H484.500244140625V210Q484.500244140625 101 426.8126525878906 43.5Q369.12506103515625 -14 265.9500732421875 -14Z"/>
<path transform="translate(636,0)" d="M69.499755859375 0V700H505.300048828125V590.8492431640625H189.6005859375V405.57537841796875H480.42510986328125V296.42462158203125H189.6005859375V0Z"/>
</g>
</svg>
